<?xml version="1.0" encoding="utf-8" ?>
<svg xmlns="http://www.w3.org/2000/svg" xmlns:xlink="http://www.w3.org/1999/xlink" width="80" height="40">
	<path fill="#FF1493" transform="scale(0.0625 0.0625)" d="M303.065 144.051C338.619 143.702 348.622 158.828 371.541 182.763C422.573 182.494 473.731 183.729 524.741 182.488C535.678 171.672 545.34 157.566 558.87 149.807C571.173 142.751 630.69 138.777 640 155.676C636.173 161.568 624.347 171.475 618.694 176.582C584.691 207.302 575.169 222.664 567.337 268.238C554.459 269.125 530.997 264.679 520.799 273.136C512.985 279.617 510.771 293.432 517.67 301.369C526.646 311.696 548.808 307.983 562.236 308.893C558.774 330.837 553.973 368.612 547.406 389.186C540.533 383.46 535.736 375.415 526.774 372.485C515.689 368.86 469.593 370.724 455.164 370.763C430.719 370.717 405.848 369.665 381.449 370.697C360.132 371.598 352.16 388.43 340.638 403.807L309.762 444.928C302.967 453.897 296.295 463.184 288.667 471.464C258.345 504.378 204.398 512.773 170.336 481.038C137.788 450.714 143.095 407.698 148.432 368.188L160.778 276.148C165.707 238.711 173.47 212.334 209.542 191.564C236.296 176.159 223.295 177.22 240.461 159.031C257.846 140.61 280.039 144.708 303.065 144.051ZM273.584 225.755C251.982 232.231 253.92 247.872 254.371 266.984C243.541 266.915 229.727 265.297 221.31 273.533C212.042 282.602 212.567 298.338 221.552 307.397C229.828 315.741 243.489 314.187 254.251 314.187C254.165 335.796 254.521 358.598 283.354 354.948C303.802 349.129 302.491 332.113 301.917 314.387C312.88 314.516 325.74 316.079 334.367 307.841C343.763 298.869 344.523 282.755 335.001 273.574C326.182 265.07 313.472 267.428 302.335 267.067C302.733 244.845 302.102 223.409 273.584 225.755Z"/>
	<path fill="#39FF14" transform="scale(0.0625 0.0625)" d="M961.102 145.312C989.08 143.107 1021.85 140.664 1037.89 168.789C1046.05 183.095 1049.53 185.534 1062.73 194.757C1096.15 218.108 1102.69 237.077 1108.27 274.396L1114.18 314.212C1122.21 367.589 1145.5 449.187 1094.78 488.382C1068.4 508.765 1030.19 502.429 1004.72 483.387C984.652 468.393 957.664 424.036 943.104 402.159C920.625 368.386 921.376 363.584 881.577 363.715L806.678 363.69C793.681 363.651 779.168 361.989 767.528 369.029C754.31 377.022 752.929 391.444 746.297 396.605C746.39 401.969 716.255 452.551 711.02 460.427C686.513 497.302 634.288 518.05 599.185 483.32C565.341 449.835 574.398 395.623 581.583 353.626L589.64 306.31C594.15 280.785 595.162 250.87 608.613 228.006C620.177 208.351 634.859 201.434 649.781 186.567C654.445 181.921 657.6 175.951 662.293 171.267C686.852 146.757 764.895 161.94 762.817 184.291C812.587 185.421 862.571 184.464 912.364 184.462C928.159 172.41 921.668 149.126 961.102 145.312ZM699.541 220.933C671.528 231.942 690.524 253.855 682.636 267.717C669.285 268.068 646.348 264.925 636.699 275.009C628.925 283.133 630.892 294.955 638.934 302.105C649.138 311.178 669.772 307.95 682.783 307.808C687.68 320.262 674.739 360.345 707.004 355.547C727.34 351.971 729.832 318.049 724.584 307.746C737.383 308.003 761.79 310.92 771.342 301.893C779.164 294.502 779.684 282.051 772.015 274.332C761.87 264.12 738.454 268.838 724.98 267.634C730.889 257.185 728.37 216.619 699.541 220.933ZM1039.59 259.062C1003.9 270.336 1014.54 315.824 1047.03 312.128C1084.03 308.45 1077.93 255.889 1039.59 259.062ZM932.75 259.687C893.913 275.212 918.332 321.258 943.894 312.165C979.088 306.268 971.871 255.407 932.75 259.687ZM988.099 205.312C953.492 211.544 958.23 261.143 992.344 258.924C1028.21 257.486 1025.54 203.307 988.099 205.312ZM988.244 315.312C952.42 324.798 961.306 371.999 994.517 368.543C1030.83 364.106 1023.81 312.266 988.244 315.312Z"/>
</svg>
